<?xml version="1.0" encoding="UTF-8"?>
<svg id="_图层_1" data-name="图层_1" xmlns="http://www.w3.org/2000/svg" version="1.1" viewBox="0 0 595.3 841.9">
  <!-- Generator: Adobe Illustrator 30.1.0, SVG Export Plug-In . SVG Version: 2.1.1 Build 136)  -->
  <defs>
    <style>
      .st0, .st1 {
        font-family: AdobeSongStd-Light-GBpc-EUC-H, 'Adobe Song Std';
        font-weight: 300;
      }

      .st2 {
        stroke-dasharray: 0 3.1;
      }

      .st2, .st3, .st4, .st5, .st6, .st7, .st8 {
        stroke-miterlimit: 10;
      }

      .st2, .st3, .st4, .st5, .st6, .st8 {
        fill: none;
      }

      .st2, .st4, .st5, .st6, .st7, .st8 {
        stroke: #231815;
      }

      .st9 {
        fill: #e1cce1;
      }

      .st1, .st10, .st11 {
        fill: #231815;
        font-size: 8px;
      }

      .st12, .st11, .st13 {
        font-family: ArialMT, Arial;
      }

      .st3 {
        stroke: #221714;
      }

      .st4 {
        stroke-dasharray: 6.2 0 0 3.1;
      }

      .st14 {
        fill: #f6c6c1;
      }

      .st15 {
        fill: #faebbb;
      }

      .st16 {
        fill: #b5e0f4;
      }

      .st5 {
        stroke-dasharray: 5.7 0 0 2.8;
      }

      .st17 {
        font-family: Arial-ItalicMT, Arial;
        font-style: italic;
      }

      .st7, .st13 {
        fill: #fff;
      }

      .st18 {
        fill: #459841;
      }

      .st13 {
        font-size: 9px;
      }

      .st8 {
        stroke-dasharray: 0 2.8;
      }
    </style>
  </defs>
  <ellipse class="st14" cx="182.1" cy="91.7" rx="50.2" ry="93.4" transform="translate(41.3 239.1) rotate(-73.1)"/>
  <path class="st6" d="M324.7,636.8c-13.5-11.2-28.3-27.5-27.1-46,.8-11.7,7.5-17.3,13.5-31.3,9-20.5,7.6-38.7,6.3-60.1-2-32.6-11.3-56.8-19.8-78.4-18.3-46.3-29.7-47.8-30-71.9-.4-29.1,16.1-35.9,10.9-61.3-5.1-25.3-22.9-25.7-25.9-48.7-2.8-22.4,12.9-31.3,19.9-62.2,4.8-21.2,9.8-41.6-1.2-57.9-10.6-15.8-30.7-19.7-33.4-20.2-22.9-4.1-33.3,10-49.7,2.4-11.9-5.5-7.9-13.8-21.1-21.1-15.5-8.6-26.5-.3-48.1-7.1-10.6-3.3-18.4-8.6-23.3-12.5"/>
  <rect class="st18" x="261.9" y="430" width="91.9" height="28.3" rx="5.6" ry="5.6"/>
  <rect class="st18" x="237.2" y="374.8" width="91.9" height="28.3" rx="5.6" ry="5.6"/>
  <ellipse class="st16" cx="395.3" cy="670.3" rx="27.1" ry="43.1" transform="translate(-373.9 788.4) rotate(-68.2)"/>
  <rect class="st9" x="407.6" y="277.5" width="76.3" height="18.4" rx="3.1" ry="3.1"/>
  <ellipse class="st14" cx="152.3" cy="347.2" rx="80.2" ry="39.6" transform="translate(-126.7 90.5) rotate(-23.7)"/>
  <path class="st7" d="M230.1,378.5"/>
  <path class="st6" d="M279.4,304.1c-37.5-6.1-57.6,2-69.1,11.4-11.1,9-16.3,20.8-34,28.2-12.6,5.2-21.4,4-31.9,5-15.7,1.5-37.9,8.3-64.4,33"/>
  <text class="st11" transform="translate(119 336.7)"><tspan x="0" y="0">StringTie2</tspan></text>
  <text class="st11" transform="translate(160.9 322.8)"><tspan x="0" y="0">Isotools2.0</tspan></text>
  <text class="st11" transform="translate(103.6 374.6)"><tspan x="0" y="0">IsoQuant</tspan></text>
  <text class="st11" transform="translate(163 355.6)"><tspan x="0" y="0">Isosceles</tspan></text>
  <ellipse class="st14" cx="170.1" cy="223.9" rx="35.1" ry="61" transform="translate(-75.2 361.2) rotate(-82)"/>
  <text class="st11" transform="translate(143.7 207.7)"><tspan x="0" y="0">FLAIR</tspan></text>
  <text class="st11" transform="translate(156.7 235.3)"><tspan x="0" y="0">Mandalorion</tspan></text>
  <text class="st11" transform="translate(163 74.4)"><tspan x="0" y="0">ESPRESSO</tspan></text>
  <text class="st11" transform="translate(154.8 104.4)"><tspan x="0" y="0">TALON</tspan></text>
  <text class="st11" transform="translate(216.9 124)"><tspan x="0" y="0">FLAMES</tspan></text>
  <text class="st11" transform="translate(187.9 116.9)"><tspan x="0" y="0">Bambu</tspan></text>
  <text class="st11" transform="translate(206.7 79.6)"><tspan x="0" y="0">ISATools</tspan></text>
  <ellipse class="st9" cx="419.2" cy="362.3" rx="39.6" ry="69.6" transform="translate(-48 660.2) rotate(-73.4)"/>
  <text class="st11" transform="translate(392.7 381.6)"><tspan x="0" y="0">RNA-Bloom2</tspan></text>
  <text class="st11" transform="translate(388.9 341.8)"><tspan x="0" y="0">rnaSPAdes</tspan></text>
  <ellipse class="st16" cx="149.3" cy="676.5" rx="72.7" ry="43.1" transform="translate(-232.5 98.4) rotate(-21)"/>
  <text class="st11" transform="translate(95.8 679.6)"><tspan x="0" y="0">IsoQuant</tspan></text>
  <text class="st11" transform="translate(153.4 661.6)"><tspan x="0" y="0">Bambu</tspan></text>
  <text class="st11" transform="translate(103.4 706)"><tspan x="0" y="0">ESPRESSO</tspan></text>
  <text class="st11" transform="translate(172.2 692.1)"><tspan x="0" y="0">LIQA</tspan></text>
  <ellipse class="st16" cx="358.6" cy="722.6" rx="31.7" ry="57" transform="translate(-393.5 430.9) rotate(-42.4)"/>
  <text class="st11" transform="translate(341.5 699.3)"><tspan x="0" y="0">IsoSeq3</tspan></text>
  <text class="st11" transform="translate(341.2 742.3)"><tspan x="0" y="0">Mandalorion</tspan></text>
  <text class="st11" transform="translate(370.3 655)"><tspan x="0" y="0">NanoCount</tspan></text>
  <text class="st11" transform="translate(375.8 684.5)"><tspan x="0" y="0">RATTLE</tspan></text>
  <ellipse class="st16" cx="255.3" cy="708.6" rx="63.3" ry="41.1" transform="translate(-492.8 620.7) rotate(-63.5)"/>
  <text class="st11" transform="translate(213.4 731.3)"><tspan x="0" y="0">Isosceles</tspan></text>
  <text class="st11" transform="translate(228.6 685.8)"><tspan x="0" y="0">lr-kallisto</tspan></text>
  <text class="st11" transform="translate(259.2 708.3)"><tspan x="0" y="0">StringTie2</tspan></text>
  <ellipse class="st16" cx="218.8" cy="584.9" rx="70" ry="37.6" transform="translate(-160.4 88.7) rotate(-16.9)"/>
  <text class="st11" transform="translate(205.6 568.8)"><tspan x="0" y="0">Salmon</tspan></text>
  <text class="st11" transform="translate(167.8 582.8)"><tspan x="0" y="0">RSEM</tspan></text>
  <text class="st11" transform="translate(169.9 609.4)"><tspan x="0" y="0">Cufflinks</tspan></text>
  <ellipse class="st16" cx="178.5" cy="481.9" rx="36.3" ry="64.3" transform="translate(-331.9 541.3) rotate(-76.3)"/>
  <text class="st11" transform="translate(149.3 496.4)"><tspan x="0" y="0">miniQuant</tspan></text>
  <text class="st11" transform="translate(143.5 466.7)"><tspan x="0" y="0">JOLI</tspan></text>
  <text class="st11" transform="translate(198.3 490.6)"><tspan x="0" y="0">MPAQT</tspan></text>
  <ellipse class="st15" cx="486.5" cy="538.3" rx="35.1" ry="75.4" transform="translate(-114.3 945.2) rotate(-82)"/>
  <text class="st11" transform="translate(458 519.5)"><tspan x="0" y="0">rSeq</tspan></text>
  <text class="st11" transform="translate(508.4 524.4)"><tspan x="0" y="0">IDP</tspan></text>
  <text class="st11" transform="translate(467.4 565.7)"><tspan x="0" y="0">alpine</tspan></text>
  <text class="st13" transform="translate(257.9 391.4)"><tspan x="0" y="0">Identification</tspan></text>
  <path class="st6" d="M400.9,346.6c-.3,1.3-1.1,6.1,1.9,9.6.4.5.9,1,1.6,1.5"/>
  <path class="st6" d="M422.4,368.4c-.3-.1-3.6-1.5-4.4-4.9-.4-2,.2-3.6.4-4.2"/>
  <path class="st7" d="M310.5,192.4"/>
  <ellipse class="st9" cx="440.5" cy="213.3" rx="88.1" ry="47.6" transform="translate(-47.2 172) rotate(-21)"/>
  <path class="st6" d="M279.4,300.3c4.5-8.5,12-19.2,24.6-24.6,13.9-5.9,19.6.5,35.5-6.1,14.3-5.9,25.5-18.1,30.8-23.9,5.3-5.8,7.3-9.3,14-13.5,2.7-1.7,7-4,20.3-7.8,30.9-8.7,34.1-7.6,38.4-9.7,5.7-2.8,6.3-4.1,11.5-6,8.6-3,17.9-3.2,21.1-3.3.8,0,1.1,0,1.9,0,0,0,.5,0,2.1,0,1.7,0,12-.4,13.5-.5,8.7-.6,28.1-14.8,30.8-16.9"/>
  <text class="st11" transform="translate(383.6 207.9)"><tspan x="0" y="0">IsoSeq3</tspan></text>
  <text class="st11" transform="translate(448.1 191.7)"><tspan x="0" y="0">IsoSplitter</tspan></text>
  <text class="st11" transform="translate(385.2 257.8)"><tspan x="0" y="0">RATTLE</tspan></text>
  <text class="st11" transform="translate(455.9 226)"><tspan x="0" y="0">isONform</tspan></text>
  <path class="st6" d="M405.7,213.5c.8-.2,4.5-1,8.3,1.3,3.3,2,4.5,5.1,4.8,6"/>
  <path class="st6" d="M394.7,247.8c-.6-.1-6.4-1.5-8.9-7.1-1.8-4.1-.7-8-.4-8.9"/>
  <path class="st6" d="M479.2,197.7c.8,0,4,0,6.8,2.5,2,1.8,2.6,3.9,2.9,4.8"/>
  <path class="st6" d="M465.7,206.3c.5,0,4.3-.1,6.7,2.9,1.6,2,1.7,4.2,1.7,4.9"/>
  <path class="st6" d="M253.8,244.5c-6.2-15.2-13.4-20.1-19-21.6-6.2-1.7-10.4.1-28.6,0-14.7,0-17.9-3.8-32.1-5.6-19.1-2.4-25,7.4-42.4,3.5-4.8-1.1-12.1-3.7-20.2-11.3"/>
  <path class="st6" d="M318.1,521.3c-38.5-18.5-58.4-19.4-69.5-16.2-2.2.6-5.4,1.6-9.5,2.4-4,.8-7.9,1.5-12.8,1.5-3.6,0-10.7,0-17.9-3.7-1.7-.8-3.2-1.8-10.1-7.9-13.2-11.7-13.7-13.5-18-15.7-7.5-3.8-13.2-1.8-20.4-1.9-9.6-.2-23-4.4-39.4-21.9"/>
  <path class="st6" d="M309.7,563.1c-4.2-1.3-10.5-2.9-18.4-2.9-7.9,0-13.9,1.8-16.7,2.7-9.4,3.1-15.2,8-18.9,10.7-13.4,10-30,15.9-42,17.9-20,3.2-26.9-4.5-42.6,1.9-8.6,3.5-14.6,9.1-18.3,13.3"/>
  <line class="st6" x1="293.2" y1="560.1" x2="289.1" y2="542.6"/>
  <text class="st11" transform="translate(266.3 539.9)"><tspan x="0" y="0">Short-read</tspan></text>
  <path class="st6" d="M317.6,508.4c14.3,4.9,26.1,6.9,34,7.8,27.3,3.1,50.4-1.8,70.3,5.3,1.4.5,7.2,2.5,14,5.2,8,3.1,12,5,18.7,7.3,15.1,5.2,33.7,7.6,47.3,8.7,15.2,1.3,35.6,2.1,59.9,0"/>
  <path class="st6" d="M302.2,611c-10.3,5.7-18.8,10-24.6,12.9-29.6,14.7-35.4,14.8-42.6,23.9-3.8,4.9-6.1,10-13.1,14.5-5,3.2-9.8,4.6-15.2,5.9-10.6,2.7-17.5.9-42.8,9.4-20.4,6.8-27.8,11.5-37.9,13.7-3.1.7-5.7,1-7.5,1.1,0,0-1,0-2,.1-3.5.2-17.3-1.8-36-5.5"/>
  <path class="st6" d="M302.2,611c-5,12.9-10.6,17-14.9,18.2-2.9.9-9.1,1.9-14.8,6.8-.5.4-1,1-1.5,1.6-6.6,8.6-2,24.2-1.8,30.1.2,13.4,0,16.6-.9,18.4-.1.2-.3.5-.6.9-6.9,10.6-12.3,12.9-14.6,18.8-1.2,3-.2,3.5-.2,11.6,0,8.1-2.9,24.3-3.4,26-1.7,5.7-5.3,14.8-12.9,24.4"/>
  <path class="st6" d="M355.3,702.7c.3.3,2.6,2.7,2,6.2-.5,3.1-2.9,4.7-3.2,5"/>
  <path class="st6" d="M337.7,708.3c1.6,0,3-.8,3.5-2.1.4-1,.1-1.9,0-2.2"/>
  <path class="st6" d="M389.5,663.4c.4-.2,1.7-1.2,2.1-3,.2-1,.1-1.8,0-2.3"/>
  <path class="st6" d="M398.1,669.2c.2.2,1.6,2.1.8,4.5-.6,1.9-2.1,2.8-2.5,3"/>
  <path class="st6" d="M517.1,543.6c.4-.3,3.7-2.9,3.7-7.3,0-3.4-1.9-5.7-2.4-6.2"/>
  <path class="st6" d="M467.9,538.1c.8-.6,3.3-2.5,4.5-6.1,1.1-3.4.3-6.3,0-7.3"/>
  <path class="st6" d="M487.6,541c.4.5,2.1,3,1.7,6.4-.4,3.5-2.7,5.5-3.2,5.9"/>
  <path class="st6" d="M223.1,98.4c1-1,3.9-4.1,4.5-9,.4-3.3-.3-5.9-.8-7.3"/>
  <path class="st6" d="M235.5,98.4c.4.4,3.1,3.7,2.3,8.2-.7,3.9-3.7,6-4.2,6.3"/>
  <path class="st6" d="M207.2,102.2c.4.5,2.2,2.3,1.7,4.8-.3,1.5-1.2,2.5-1.7,3"/>
  <path class="st6" d="M182.9,97c.5-1.2,1.6-3.9,2.2-7.3.9-4.9.2-7.8,0-8.6"/>
  <path class="st6" d="M172.1,83.5c.4.6,2.4,3.6,1.7,7.7-.6,3.4-2.8,5.4-3.4,5.9"/>
  <path class="st6" d="M164.8,217.3c1-.9,1.3-2.3,1-3.6-.4-1.3-1.5-2.3-2.8-2.5"/>
  <path class="st6" d="M178.9,218.2c-2.3-.1-4.3,1.2-4.9,3.1-.6,2.1.7,3.8.9,4"/>
  <path class="st6" d="M187.5,337.2c.4-.8,1.3-2.9.9-5.6-.3-2.4-1.4-4-1.9-4.8"/>
  <path class="st6" d="M137,349.7c.4-.5,1.7-2.1,1.7-4.5,0-1.7-.5-3-.9-3.6"/>
  <path class="st6" d="M114.9,357.1c-1.2.5-2.1,1.6-2.3,2.8-.2,1.6.7,3.2,2.3,3.8"/>
  <path class="st6" d="M179.1,342.3c-.3.1-1.8.9-2.4,2.7-.3,1.1-.1,2.1,0,2.5"/>
  <path class="st6" d="M168.3,487.2c-.1-1-.2-2.2,0-3.5.2-1.6.6-3,1-4"/>
  <path class="st6" d="M152.9,469.3c-.4.2-3.5,1.4-4.4,4.6-.5,1.7-.2,3.1,0,3.8"/>
  <path class="st6" d="M209.8,494.9c-.3,0-3.7.9-4.8,4-.7,1.9-.2,3.6,0,4.2"/>
  <path class="st6" d="M181.9,591.2c-.2-.2-1.2-1.6-.8-3.4.4-2,2.2-2.9,2.4-2.9"/>
  <path class="st6" d="M222.9,589.2c-.9-1.7-2.4-5.1-2.3-9.6,0-2.6.6-4.8,1.2-6.3"/>
  <path class="st6" d="M191.3,591.6c-.2.1-1.8,1.1-2.1,3.1-.3,2,.9,3.3,1,3.5"/>
  <path class="st6" d="M166.7,665.6c.7.6,2.5,2.3,3.2,5.1.6,2.2.2,4.1,0,5"/>
  <path class="st6" d="M185.9,671.8c.5.2,3.1,1.5,4.1,4.5.8,2.3.2,4.2,0,4.9"/>
  <path class="st6" d="M125.4,691.5c.4-.5,1.3-2,1.2-4.1,0-2-.9-3.5-1.2-4"/>
  <path class="st6" d="M140.6,686.7c.3.2,2.2,1.3,2.7,3.7.5,2.6-1.2,4.5-1.3,4.7"/>
  <path class="st6" d="M269,671.9c-.6-.5-3.7-2.7-7.9-2.2-3.8.4-6.2,2.7-6.8,3.4"/>
  <path class="st6" d="M265,690.7c.4,0,3.5,0,5.4,2.6,1.2,1.5,1.3,3.2,1.3,3.8"/>
  <path class="st6" d="M252.7,717.3c-1.2-.3-3.9-.8-7,0-2.2.6-3.8,1.7-4.8,2.4"/>
  <text class="st10" transform="translate(378.3 47.2)"><tspan class="st0" x="0" y="0">①</tspan><tspan class="st12" x="8" y="0" xml:space="preserve"> Graph-based</tspan><tspan class="st0" x="0" y="9.6">②</tspan><tspan class="st12" x="8" y="9.6" xml:space="preserve"> Clustering-based</tspan><tspan class="st0" x="0" y="19.2">③</tspan><tspan class="st12" x="8" y="19.2" xml:space="preserve"> Classification-based</tspan><tspan class="st0" x="0" y="28.8">④</tspan><tspan class="st12" x="8" y="28.8" xml:space="preserve"> Comprehensive bias-aware</tspan><tspan class="st0" x="0" y="38.4">⑤</tspan><tspan class="st12" x="8" y="38.4" xml:space="preserve"> Light-weight</tspan><tspan class="st0" x="0" y="48">⑥</tspan><tspan class="st12" x="8" y="48" xml:space="preserve"> Platform-specific</tspan></text>
  <text class="st10" transform="translate(410.5 289.9)"><tspan class="st17" x="0" y="0">De novo</tspan><tspan class="st12" x="29.8" y="0" xml:space="preserve"> assembly</tspan></text>
  <rect class="st14" x="74.5" y="266" width="109.7" height="18.4" rx="3.1" ry="3.1"/>
  <text class="st11" transform="translate(80.1 278.4)"><tspan x="0" y="0">Reference annotation-based</tspan></text>
  <rect class="st16" x="111.9" y="537.8" width="56.5" height="18.4" rx="3.1" ry="3.1"/>
  <text class="st11" transform="translate(117.8 550.2)"><tspan x="0" y="0">Read-based</tspan></text>
  <rect class="st15" x="437.7" y="463.4" width="64.8" height="18.4" rx="3.1" ry="3.1"/>
  <text class="st11" transform="translate(445 475.8)"><tspan x="0" y="0">Region-based</tspan></text>
  <line class="st6" x1="248.9" y1="302" x2="246.4" y2="288.9"/>
  <text class="st1" transform="translate(241.2 286)"><tspan x="0" y="0">①</tspan></text>
  <line class="st6" x1="238.9" y1="224.5" x2="236.3" y2="212.9"/>
  <text class="st1" transform="translate(231.9 211.2)"><tspan x="0" y="0">②</tspan></text>
  <line class="st6" x1="278" y1="142.8" x2="268" y2="146.9"/>
  <text class="st1" transform="translate(258.6 152.1)"><tspan x="0" y="0">③</tspan></text>
  <line class="st6" x1="309.4" y1="274" x2="312.7" y2="258.1"/>
  <line class="st6" x1="296.5" y1="313.1" x2="300.1" y2="301.4"/>
  <text class="st1" transform="translate(297.6 300.3)"><tspan x="0" y="0">①</tspan></text>
  <text class="st1" transform="translate(310.6 255.2)"><tspan x="0" y="0">②</tspan></text>
  <line class="st6" x1="349.3" y1="516.5" x2="356.2" y2="502.3"/>
  <text class="st11" transform="translate(328.7 496.2)"><tspan x="0" y="0">Generalized linear model</tspan></text>
  <line class="st6" x1="279.5" y1="506.7" x2="277.4" y2="512.8"/>
  <text class="st11" transform="translate(255.2 523.8)"><tspan x="0" y="0">Hybrid</tspan></text>
  <line class="st6" x1="305.9" y1="569.6" x2="316.1" y2="571.7"/>
  <text class="st11" transform="translate(318 577.3)"><tspan x="0" y="0">Long-read</tspan></text>
  <line class="st7" x1="234.3" y1="639.5" x2="234.3" y2="648.2"/>
  <line class="st7" x1="312.6" y1="625.1" x2="322" y2="622.7"/>
  <line class="st7" x1="282.2" y1="630.4" x2="282.2" y2="637"/>
  <text class="st1" transform="translate(229.9 637.3)"><tspan x="0" y="0">④</tspan></text>
  <text class="st1" transform="translate(278.4 645.9)"><tspan x="0" y="0">⑤</tspan></text>
  <text class="st1" transform="translate(324.7 623.9)"><tspan x="0" y="0">⑥</tspan></text>
  <text class="st11" transform="translate(219.4 601.9)"><tspan x="0" y="0">kallisto</tspan></text>
  <path class="st6" d="M233.5,585.9c-.3.3-1.4,1.4-1.6,3.2-.2,1.7.6,3,.8,3.4"/>
  <g>
    <polyline class="st6" points="491.7 100.3 491.7 103.3 488.7 103.3"/>
    <line class="st2" x1="488.7" y1="103.3" x2="488.2" y2="103.3"/>
    <line class="st4" x1="485.6" y1="103.3" x2="375.2" y2="103.3"/>
    <polyline class="st6" points="373.7 103.3 370.7 103.3 370.7 100.3"/>
    <line class="st8" x1="370.7" y1="100.3" x2="370.7" y2="99.9"/>
    <line class="st5" x1="370.7" y1="97.5" x2="370.7" y2="39.1"/>
    <polyline class="st6" points="370.7 37.6 370.7 34.6 373.7 34.6"/>
    <line class="st2" x1="373.7" y1="34.6" x2="374.3" y2="34.6"/>
    <line class="st4" x1="376.8" y1="34.6" x2="487.2" y2="34.6"/>
    <polyline class="st6" points="488.7 34.6 491.7 34.6 491.7 37.6"/>
    <line class="st8" x1="491.7" y1="37.6" x2="491.7" y2="38.1"/>
    <line class="st5" x1="491.7" y1="40.5" x2="491.7" y2="98.9"/>
  </g>
  <text class="st13" transform="translate(280.3 446.5)"><tspan x="0" y="0">Quantification</tspan></text>
  <path class="st6" d="M249.4,578c-.3-.3-2.7-2.4-2.6-5.6.1-1.7.9-2.9,1.3-3.5"/>
  <text class="st11" transform="translate(238.8 562.2)"><tspan x="0" y="0">Scallop2</tspan></text>
  <text class="st11" transform="translate(423.6 233.7)"><tspan x="0" y="0">Freddie</tspan></text>
  <path class="st6" d="M149.8,75.8c1.8-1.6,2.9-4.6,2.8-7.6-.1-1.8-.7-3.1-1-3.8"/>
  <text class="st11" transform="translate(145.4 61.9)"><tspan x="0" y="0">LyRic</tspan></text>
  <path class="st6" d="M139.8,76.3c0,0,1.8,1.9,1.1,4.2-.4,1.4-1.5,2.2-1.8,2.4"/>
  <text class="st11" transform="translate(123.8 91.7)"><tspan x="0" y="0">LRAA</tspan></text>
  <path class="st6" d="M325.1,637.3c1.2.6,2.9,1.5,5,2.7,8.4,4.8,10.8,7.9,15.6,11,7.7,4.9,15.5,6.1,20.3,6.7,9.2,1.3,11.3-.7,18.2,1.9,5,1.9,4.3,3.5,11.7,8.2,6,3.8,6.1,2.6,18.8,9.2,5.7,3,9.8,5.3,14.2,9.2,1.8,1.6,3.3,3.1,4.2,4.1"/>
  <text class="st11" transform="translate(323 716.8)"><tspan x="0" y="0">LRAA</tspan></text>
  <path class="st6" d="M324.6,636.7c.8.9,2,2.3,2.8,4.4.9,2.2,1.1,4.1,1.1,5.4.2,6.2-1.8,13.3-2.4,16.7-1.1,6,.4,10.6,3.1,18.8,1.4,4.2,6,18,18.1,27.8,11,8.9,16.1,4.9,29.9,16.3,5.1,4.2,8.4,6.9,11,12,2.7,5.3,3,9.7,7.3,18.6,1.3,2.6,2.5,4.7,3.2,6"/>
  <path class="st6" d="M380.9,729.3c-.5,0-3.1-.2-5.4,1.6-2.5,2-2.7,4.9-2.7,5.4"/>
  <line class="st6" x1="341.8" y1="647" x2="347.6" y2="639.5"/>
  <line class="st6" x1="327.4" y1="655" x2="322.9" y2="653.2"/>
  <text class="st11" transform="translate(341.4 635.4)"><tspan x="0" y="0">ONT</tspan></text>
  <text class="st11" transform="translate(296.3 654.1)"><tspan x="0" y="0">PacBio</tspan></text>
  <path class="st6" d="M275.5,315.7c4.7-1.3,11.6-2.8,20.1-2.7,3.5,0,9.6.4,20.3,3.4,19.7,5.5,34,14.1,39.5,17.5,15.4,9.7,14.5,12.9,24.7,18.1,14.2,7.4,24.3,5,40,7.1,25.8,3.3,44.7,14.1,50.6,17.8,5.8,3.7,10.3,7.3,13.2,9.8"/>
  <path class="st6" d="M433.2,217.3c.5,0,4.3-.1,6.7,2.9,1.6,2,1.7,4.2,1.7,4.9"/>
  <ellipse class="st16" cx="443.3" cy="608.1" rx="38.8" ry="91.2" transform="translate(-220.7 962.2) rotate(-82)"/>
  <path class="st3" d="M297.5,590.9c19.9-3.6,35.5-2.7,46-1.1,26.1,3.7,30.4,12.2,57.4,14.2,6.7.5,16.3.7,28.9,4.7,10.7,3.4,10,5.2,18.1,7.2,10.4,2.6,13.4,0,37.4-.4,14.8-.3,19.4.6,21.7,1.1,9.1,2.1,16.1,5.9,20.7,8.8"/>
  <text class="st11" transform="translate(418 595.5)"><tspan x="0" y="0">TALON</tspan></text>
  <text class="st11" transform="translate(456.3 600.5)"><tspan x="0" y="0">FLAMES</tspan></text>
  <text class="st11" transform="translate(480.6 637.6)"><tspan x="0" y="0">Oarfish</tspan></text>
  <text class="st11" transform="translate(497.7 607.4)"><tspan x="0" y="0">FLAIR</tspan></text>
  <text class="st11" transform="translate(428.4 633)"><tspan x="0" y="0">IsoSplitter</tspan></text>
  <text class="st11" transform="translate(381.3 587.5)"><tspan x="0" y="0">ISAtools</tspan></text>
  <text class="st11" transform="translate(376.3 620)"><tspan x="0" y="0">IsONform</tspan></text>
  <path class="st6" d="M459.1,626.3c.3-.2,2.8-2,2.8-5.1,0-2.4-1.5-4-1.8-4.3"/>
  <path class="st6" d="M394.8,603c.8-.6,3.3-2.5,4.5-6.1,1.1-3.4.3-6.3,0-7.3"/>
  <path class="st6" d="M433.8,597.4c.4.5,2.1,3,1.7,6.4-.4,3.5-2.7,5.5-3.2,5.9"/>
  <path class="st6" d="M506.9,616.4c.2-.2,1.6-1.7,1.7-4.3,0-2-.9-3.4-1.1-3.7"/>
  <path class="st6" d="M473.5,616c.8-.6,3.3-2.5,4.5-6.1,1.1-3.4.3-6.3,0-7.3"/>
  <path class="st6" d="M500.5,615.8c.4.5,2.1,3,1.7,6.4-.4,3.5-2.7,5.5-3.2,5.9"/>
  <path class="st6" d="M406.7,613.1c.5-.4,2.1-1.6,2.9-4,.7-2.2.2-4.1,0-4.7"/>
  <line class="st6" x1="326.2" y1="599.3" x2="324.6" y2="588.6"/>
  <text class="st11" transform="translate(301.8 606.2)"><tspan x="0" y="0">Assembly-first</tspan></text>
</svg>