<?xml version="1.0" encoding="UTF-8"?>
<svg id="_图层_1" data-name="图层_1" xmlns="http://www.w3.org/2000/svg" version="1.1" viewBox="0 0 476.1 735.6">
  <!-- Generator: Adobe Illustrator 30.6.0, SVG Export Plug-In . SVG Version: 2.1.4 Build 109)  -->
  <defs>
    <style>
      .st0, .st1 {
        font-family: AdobeSongStd-Light-GBpc-EUC-H, 'Adobe Song Std';
        font-weight: 300;
      }

      .st2 {
        stroke-dasharray: 0 3.1;
      }

      .st2, .st3, .st4, .st5, .st6, .st7, .st8 {
        stroke: #231815;
        stroke-miterlimit: 10;
      }

      .st2, .st3, .st4, .st5, .st6, .st8 {
        fill: none;
      }

      .st3 {
        stroke-width: .8px;
      }

      .st9 {
        fill: #e1cce1;
      }

      .st1, .st10, .st11 {
        fill: #231815;
        font-size: 8px;
      }

      .st12, .st11, .st13 {
        font-family: ArialMT, Arial;
      }

      .st4 {
        stroke-dasharray: 6.2 0 0 3.1;
      }

      .st14 {
        fill: #f6c6c1;
      }

      .st15 {
        fill: #faebbb;
      }

      .st16 {
        fill: #b5e0f4;
      }

      .st5 {
        stroke-dasharray: 5.7 0 0 2.8;
      }

      .st17 {
        font-family: Arial-ItalicMT, Arial;
        font-style: italic;
      }

      .st7, .st13 {
        fill: #fff;
      }

      .st18 {
        fill: #459841;
      }

      .st13 {
        font-size: 9px;
      }

      .st8 {
        stroke-dasharray: 0 2.8;
      }
    </style>
  </defs>
  <ellipse class="st14" cx="107.4" cy="57.5" rx="50.2" ry="93.4" transform="translate(21.1 143.5) rotate(-73.1)"/>
  <path class="st6" d="M250.2,602.6c-13.5-11.2-28.3-27.5-27.1-46,.8-11.7,7.5-17.3,13.5-31.3,9-20.5,7.6-38.7,6.3-60.1-2-32.6-11.3-56.8-19.8-78.4-18.3-46.3-29.7-47.8-30-71.9-.4-29.1,16.1-35.9,10.9-61.3-5.1-25.3-22.9-25.7-25.9-48.7-2.8-22.4,12.9-31.3,19.9-62.2,4.8-21.2,9.8-41.6-1.2-57.9-10.6-15.8-30.7-19.7-33.4-20.2-22.9-4.1-33.3,10-49.7,2.4-11.9-5.5-7.9-13.8-21.1-21.1-15.5-8.6-26.5-.3-48.1-7.1-10.6-3.3-18.4-8.6-23.3-12.5"/>
  <rect class="st18" x="187.4" y="395.8" width="91.9" height="28.3" rx="5.6" ry="5.6"/>
  <rect class="st18" x="162.7" y="340.7" width="91.9" height="28.3" rx="5.6" ry="5.6"/>
  <ellipse class="st16" cx="320.8" cy="636.2" rx="27.1" ry="43.1" transform="translate(-389 697.7) rotate(-68.2)"/>
  <rect class="st9" x="333.1" y="243.3" width="76.3" height="18.4" rx="3.1" ry="3.1"/>
  <ellipse class="st15" cx="385.3" cy="435.6" rx="64.3" ry="30.3" transform="translate(-142.6 191.6) rotate(-23.7)"/>
  <ellipse class="st14" cx="77.8" cy="313.1" rx="80.2" ry="39.6" transform="translate(-119.3 57.7) rotate(-23.7)"/>
  <path class="st7" d="M155.6,344.4"/>
  <path class="st6" d="M204.9,270c-37.5-6.1-57.6,2-69.1,11.4-11.1,9-16.3,20.8-34,28.2-12.6,5.2-21.4,4-31.9,5-15.7,1.5-37.9,8.3-64.4,33"/>
  <text class="st11" transform="translate(44.5 302.6)"><tspan x="0" y="0">StringTie2</tspan></text>
  <text class="st11" transform="translate(86.4 288.7)"><tspan x="0" y="0">Isotools2.0</tspan></text>
  <text class="st11" transform="translate(29.1 340.4)"><tspan x="0" y="0">IsoQuant</tspan></text>
  <text class="st11" transform="translate(88.5 321.5)"><tspan x="0" y="0">Isosceles</tspan></text>
  <ellipse class="st14" cx="95.6" cy="189.7" rx="35.1" ry="61" transform="translate(-105.6 258) rotate(-82)"/>
  <text class="st11" transform="translate(69.2 173.6)"><tspan x="0" y="0">FLAIR</tspan></text>
  <text class="st11" transform="translate(82.1 201.1)"><tspan x="0" y="0">Mandalorion</tspan></text>
  <text class="st11" transform="translate(88.5 40.3)"><tspan x="0" y="0">ESPRESSO</tspan></text>
  <text class="st11" transform="translate(80.3 70.2)"><tspan x="0" y="0">TALON</tspan></text>
  <text class="st11" transform="translate(142.4 89.8)"><tspan x="0" y="0">FLAMES</tspan></text>
  <text class="st11" transform="translate(113.4 82.8)"><tspan x="0" y="0">Bambu</tspan></text>
  <text class="st11" transform="translate(135.8 53.2)"><tspan x="0" y="0">ISATools</tspan></text>
  <ellipse class="st9" cx="344.7" cy="328.2" rx="39.6" ry="69.6" transform="translate(-68.5 564.4) rotate(-73.4)"/>
  <text class="st11" transform="translate(318.2 347.5)"><tspan x="0" y="0">RNA-Bloom2</tspan></text>
  <text class="st11" transform="translate(314.4 307.7)"><tspan x="0" y="0">rnaSPAdes</tspan></text>
  <ellipse class="st9" cx="243.2" cy="140.9" rx="35.2" ry="24.4" transform="translate(34 328.7) rotate(-72)"/>
  <text class="st11" transform="translate(233.6 133)"><tspan x="0" y="0">Bambu</tspan></text>
  <ellipse class="st16" cx="74.8" cy="642.3" rx="72.7" ry="43.1" transform="translate(-225.2 69.5) rotate(-21)"/>
  <text class="st11" transform="translate(21.3 645.5)"><tspan x="0" y="0">IsoQuant</tspan></text>
  <text class="st11" transform="translate(78.9 627.5)"><tspan x="0" y="0">Bambu</tspan></text>
  <text class="st11" transform="translate(28.8 671.9)"><tspan x="0" y="0">ESPRESSO</tspan></text>
  <text class="st11" transform="translate(97.7 658)"><tspan x="0" y="0">LIQA</tspan></text>
  <ellipse class="st16" cx="284.1" cy="688.4" rx="31.7" ry="57" transform="translate(-390 371.7) rotate(-42.4)"/>
  <text class="st11" transform="translate(267 665.2)"><tspan x="0" y="0">IsoSeq3</tspan></text>
  <text class="st11" transform="translate(266.7 708.2)"><tspan x="0" y="0">Mandalorion</tspan></text>
  <text class="st11" transform="translate(295.7 620.9)"><tspan x="0" y="0">NanoCount</tspan></text>
  <text class="st11" transform="translate(301.3 650.4)"><tspan x="0" y="0">RATTLE</tspan></text>
  <ellipse class="st16" cx="180.8" cy="674.5" rx="63.3" ry="41.1" transform="translate(-503.5 535.1) rotate(-63.5)"/>
  <text class="st11" transform="translate(138.9 697.1)"><tspan x="0" y="0">Isosceles</tspan></text>
  <text class="st11" transform="translate(154.1 651.7)"><tspan x="0" y="0">lr-kallisto</tspan></text>
  <text class="st11" transform="translate(184.7 674.1)"><tspan x="0" y="0">StringTie2</tspan></text>
  <ellipse class="st16" cx="144.3" cy="550.7" rx="70" ry="37.6" transform="translate(-153.7 65.6) rotate(-16.9)"/>
  <text class="st11" transform="translate(131.1 534.7)"><tspan x="0" y="0">Salmon</tspan></text>
  <text class="st11" transform="translate(93.2 548.7)"><tspan x="0" y="0">RSEM</tspan></text>
  <text class="st11" transform="translate(95.4 575.3)"><tspan x="0" y="0">Cufflinks</tspan></text>
  <ellipse class="st16" cx="104" cy="447.7" rx="36.3" ry="64.3" transform="translate(-355.6 442.8) rotate(-76.3)"/>
  <text class="st11" transform="translate(74.8 462.3)"><tspan x="0" y="0">miniQuant</tspan></text>
  <text class="st11" transform="translate(69 432.5)"><tspan x="0" y="0">JOLI</tspan></text>
  <text class="st11" transform="translate(123.8 456.5)"><tspan x="0" y="0">MPAQT</tspan></text>
  <ellipse class="st15" cx="401.2" cy="563.2" rx="45.5" ry="75.4" transform="translate(-212.3 882.1) rotate(-82)"/>
  <text class="st11" transform="translate(381 425.6)"><tspan x="0" y="0">SLIDE</tspan></text>
  <text class="st11" transform="translate(370.6 458.3)"><tspan x="0" y="0">CIDANE</tspan></text>
  <text class="st11" transform="translate(372.4 546.2)"><tspan x="0" y="0">rSeq</tspan></text>
  <text class="st11" transform="translate(422.8 551.2)"><tspan x="0" y="0">IDP</tspan></text>
  <text class="st11" transform="translate(381.8 592.5)"><tspan x="0" y="0">alpine</tspan></text>
  <text class="st13" transform="translate(183.4 357.3)"><tspan x="0" y="0">Identification</tspan></text>
  <path class="st6" d="M326.4,312.4c-.3,1.3-1.1,6.1,1.9,9.6.4.5.9,1,1.6,1.5"/>
  <path class="st6" d="M347.9,334.3c-.3-.1-3.6-1.5-4.4-4.9-.4-2,.2-3.6.4-4.2"/>
  <path class="st7" d="M236,158.2"/>
  <ellipse class="st9" cx="366" cy="179.1" rx="88.1" ry="47.6" transform="translate(-39.9 143.1) rotate(-21)"/>
  <path class="st6" d="M204.9,266.2c4.5-8.5,12-19.2,24.6-24.6,13.9-5.9,19.6.5,35.5-6.1,14.3-5.9,25.5-18.1,30.8-23.9,5.3-5.8,7.3-9.3,14-13.5,2.7-1.7,7-4,20.3-7.8,30.9-8.7,34.1-7.6,38.4-9.7,5.7-2.8,6.3-4.1,11.5-6,8.6-3,17.9-3.2,21.1-3.3.8,0,1.1,0,1.9,0,0,0,.5,0,2.1,0,1.7,0,12-.4,13.5-.5,8.7-.6,28.1-14.8,30.8-16.9"/>
  <text class="st11" transform="translate(309.1 173.8)"><tspan x="0" y="0">IsoSeq3</tspan></text>
  <text class="st11" transform="translate(381.5 156.4)"><tspan x="0" y="0">IsoSplitter</tspan></text>
  <text class="st11" transform="translate(310.7 223.7)"><tspan x="0" y="0">RATTLE</tspan></text>
  <text class="st11" transform="translate(381.4 191.9)"><tspan x="0" y="0">isONform</tspan></text>
  <path class="st6" d="M331.1,179.4c.8-.2,4.5-1,8.3,1.3,3.3,2,4.5,5.1,4.8,6"/>
  <path class="st6" d="M320.2,213.7c-.6-.1-6.4-1.5-8.9-7.1-1.8-4.1-.7-8-.4-8.9"/>
  <path class="st6" d="M407.1,160.8c.6,0,3,0,5.1,3.5,1.5,2.5,2,5.4,2.2,6.6"/>
  <path class="st6" d="M391.2,172.1c.5,0,4.3-.1,6.7,2.9,1.6,2,1.7,4.2,1.7,4.9"/>
  <path class="st6" d="M177.9,200.5c19.8,1.1,28.2-2.7,32.1-6.5,4.1-3.9,2.6-7.1,7.4-15.2,4.5-7.6,9.1-10.3,14.5-16.1,5.1-5.5,11.4-14.1,14.9-27.1"/>
  <path class="st6" d="M179.3,210.4c-6.2-15.2-13.4-20.1-19-21.6-6.2-1.7-10.4.1-28.6,0-14.7,0-17.9-3.8-32.1-5.6-19.1-2.4-25,7.4-42.4,3.5-4.8-1.1-12.1-3.7-20.2-11.3"/>
  <path class="st6" d="M243.6,487.2c-38.5-18.5-58.4-19.4-69.5-16.2-2.2.6-5.4,1.6-9.5,2.4-4,.8-7.9,1.5-12.8,1.5-3.6,0-10.7,0-17.9-3.7-1.7-.8-3.2-1.8-10.1-7.9-13.2-11.7-13.7-13.5-18-15.7-7.5-3.8-13.2-1.8-20.4-1.9-9.6-.2-23-4.4-39.4-21.9"/>
  <path class="st6" d="M243.6,472.1c19.5,2.9,30.6,5.1,36.8,7,2,.6,8.2,2.2,16.1,2,1.8,0,3.2-.3,4.5-.6,6.9-1.9,11.9-5,14.3-6.8,16.3-12.1,15-14.5,23-18.2,7-3.2,9.6-2.1,15.6-6.3,2.9-2,5.1-4.2,9.4-5.2,2.5-.6,3.5-.3,8-.5,3.3-.2,7.3-.4,11.2-1.4,4.9-1.3,5.3-2.7,14.1-7.1,3-1.5,3-1.3,9.5-4.2,7.8-3.5,13-5.8,16.3-7.6,4.9-2.7,11.7-7.4,18.6-16.4"/>
  <path class="st6" d="M235.2,529c-4.2-1.3-10.5-2.9-18.4-2.9-7.9,0-13.9,1.8-16.7,2.7-9.4,3.1-15.2,8-18.9,10.7-13.4,10-30,15.9-42,17.9-20,3.2-26.9-4.5-42.6,1.9-8.6,3.5-14.6,9.1-18.3,13.3"/>
  <line class="st6" x1="218.7" y1="525.9" x2="214.6" y2="508.4"/>
  <text class="st11" transform="translate(191.8 505.8)"><tspan x="0" y="0">Short-read</tspan></text>
  <path class="st6" d="M232,535.2c14.3,4.9,26.1,6.9,34,7.8,27.3,3.1,50.4-1.8,70.3,5.3,1.4.5,7.2,2.5,14,5.2,8,3.1,12,5,18.7,7.3,15.1,5.2,33.7,7.6,47.3,8.7,15.2,1.3,35.6,2.1,59.9,0"/>
  <path class="st6" d="M227.7,576.9c-10.3,5.7-18.8,10-24.6,12.9-29.6,14.7-35.4,14.8-42.6,23.9-3.8,4.9-6.1,10-13.1,14.5-5,3.2-9.8,4.6-15.2,5.9-10.6,2.7-17.5.9-42.8,9.4-20.4,6.8-27.8,11.5-37.9,13.7-3.1.7-5.7,1-7.5,1.1,0,0-1,0-2,.1-3.5.2-17.3-1.8-36-5.5"/>
  <path class="st6" d="M227.7,576.9c-5,12.9-10.6,17-14.9,18.2-2.9.9-9.1,1.9-14.8,6.8-.5.4-1,1-1.5,1.6-6.6,8.6-2,24.2-1.8,30.1.2,13.4,0,16.6-.9,18.4-.1.2-.3.5-.6.9-6.9,10.6-12.3,12.9-14.6,18.8-1.2,3-.2,3.5-.2,11.6,0,8.1-2.9,24.3-3.4,26-1.7,5.7-5.3,14.8-12.9,24.4"/>
  <path class="st6" d="M280.8,668.5c.3.3,2.6,2.7,2,6.2-.5,3.1-2.9,4.7-3.2,5"/>
  <path class="st6" d="M263.2,674.1c1.6,0,3-.8,3.5-2.1.4-1,.1-1.9,0-2.2"/>
  <path class="st6" d="M315,629.3c.4-.2,1.7-1.2,2.1-3,.2-1,.1-1.8,0-2.3"/>
  <path class="st6" d="M323.6,635c.2.2,1.6,2.1.8,4.5-.6,1.9-2.1,2.8-2.5,3"/>
  <path class="st6" d="M431.5,570.4c.4-.3,3.7-2.9,3.7-7.3,0-3.4-1.9-5.7-2.4-6.2"/>
  <path class="st6" d="M382.3,564.9c.8-.6,3.3-2.5,4.5-6.1,1.1-3.4.3-6.3,0-7.3"/>
  <path class="st6" d="M402,567.8c.4.5,2.1,3,1.7,6.4-.4,3.5-2.7,5.5-3.2,5.9"/>
  <path class="st6" d="M398.7,434.2c.2-.3,1.1-1.7.8-3.5-.2-1.3-.9-2.2-1.2-2.5"/>
  <path class="st6" d="M381.8,442.6c1.4.5,2.3,1.9,2.3,3.3,0,1.5-.9,2.9-2.3,3.4"/>
  <path class="st6" d="M143.1,65c1-.5,3.9-2.2,4.5-4.9.4-1.8-.3-3.2-.8-3.9"/>
  <path class="st6" d="M161,64.3c.4.4,3.1,3.7,2.3,8.2-.7,3.9-3.7,6-4.2,6.3"/>
  <path class="st6" d="M124,69.2c.4.5,2.2,2.3,1.7,4.8-.3,1.5-1.2,2.5-1.7,3"/>
  <path class="st6" d="M108.4,62.9c.5-1.2,1.6-3.9,2.2-7.3.9-4.9.2-7.8,0-8.6"/>
  <path class="st6" d="M97.6,49.4c.4.6,2.4,3.6,1.7,7.7-.6,3.4-2.8,5.4-3.4,5.9"/>
  <path class="st6" d="M90.3,183.1c1-.9,1.3-2.3,1-3.6-.4-1.3-1.5-2.3-2.8-2.5"/>
  <path class="st6" d="M104.4,184.1c-2.3-.1-4.3,1.2-4.9,3.1-.6,2.1.7,3.8.9,4"/>
  <path class="st6" d="M113,303.1c.4-.8,1.3-2.9.9-5.6-.3-2.4-1.4-4-1.9-4.8"/>
  <path class="st6" d="M62.5,315.5c.4-.5,1.7-2.1,1.7-4.5,0-1.7-.5-3-.9-3.6"/>
  <path class="st6" d="M40.4,323c-1.2.5-2.1,1.6-2.3,2.8-.2,1.6.7,3.2,2.3,3.8"/>
  <path class="st6" d="M104.6,308.2c-.3.1-1.8.9-2.4,2.7-.3,1.1-.1,2.1,0,2.5"/>
  <path class="st6" d="M93.8,453c-.1-1-.2-2.2,0-3.5.2-1.6.6-3,1-4"/>
  <path class="st6" d="M78.4,435.1c-.4.2-3.5,1.4-4.4,4.6-.5,1.7-.2,3.1,0,3.8"/>
  <path class="st6" d="M135.3,460.7c-.3,0-3.7.9-4.8,4-.7,1.9-.2,3.6,0,4.2"/>
  <path class="st6" d="M107.4,557.1c-.2-.2-1.2-1.6-.8-3.4.4-2,2.2-2.9,2.4-2.9"/>
  <path class="st6" d="M148.4,555c-.9-1.7-2.4-5.1-2.3-9.6,0-2.6.6-4.8,1.2-6.3"/>
  <path class="st6" d="M116.8,557.5c-.2.1-1.8,1.1-2.1,3.1-.3,2,.9,3.3,1,3.5"/>
  <path class="st6" d="M92.2,631.5c.7.6,2.5,2.3,3.2,5.1.6,2.2.2,4.1,0,5"/>
  <path class="st6" d="M111.4,637.6c.5.2,3.1,1.5,4.1,4.5.8,2.3.2,4.2,0,4.9"/>
  <path class="st6" d="M50.9,657.4c.4-.5,1.3-2,1.2-4.1,0-2-.9-3.5-1.2-4"/>
  <path class="st6" d="M66.1,652.6c.3.2,2.2,1.3,2.7,3.7.5,2.6-1.2,4.5-1.3,4.7"/>
  <path class="st6" d="M194.5,637.8c-.6-.5-3.7-2.7-7.9-2.2-3.8.4-6.2,2.7-6.8,3.4"/>
  <path class="st6" d="M190.5,656.6c.4,0,3.5,0,5.4,2.6,1.2,1.5,1.3,3.2,1.3,3.8"/>
  <path class="st6" d="M178.2,683.1c-1.2-.3-3.9-.8-7,0-2.2.6-3.8,1.7-4.8,2.4"/>
  <text class="st10" transform="translate(303.8 13.1)"><tspan class="st0" x="0" y="0">①</tspan><tspan class="st12" x="8" y="0" xml:space="preserve"> Graph-based</tspan><tspan class="st0" x="0" y="9.6">②</tspan><tspan class="st12" x="8" y="9.6" xml:space="preserve"> Clustering-based</tspan><tspan class="st0" x="0" y="19.2">③</tspan><tspan class="st12" x="8" y="19.2" xml:space="preserve"> Classification-based</tspan><tspan class="st0" x="0" y="28.8">④</tspan><tspan class="st12" x="8" y="28.8" xml:space="preserve"> Comprehensive bias-aware</tspan><tspan class="st0" x="0" y="38.4">⑤</tspan><tspan class="st12" x="8" y="38.4" xml:space="preserve"> Light-weight</tspan><tspan class="st0" x="0" y="48">⑥</tspan><tspan class="st12" x="8" y="48" xml:space="preserve"> Platform-specific</tspan></text>
  <text class="st10" transform="translate(336 255.7)"><tspan class="st17" x="0" y="0">De novo</tspan><tspan class="st12" x="29.8" y="0" xml:space="preserve"> assembly</tspan></text>
  <rect class="st14" y="231.8" width="109.7" height="18.4" rx="3.1" ry="3.1"/>
  <text class="st11" transform="translate(5.6 244.2)"><tspan x="0" y="0">Reference annotation-based</tspan></text>
  <rect class="st16" x="37.4" y="503.6" width="56.5" height="18.4" rx="3.1" ry="3.1"/>
  <text class="st11" transform="translate(43.3 516)"><tspan x="0" y="0">Read-based</tspan></text>
  <rect class="st15" x="373.5" y="489.4" width="64.8" height="18.4" rx="3.1" ry="3.1"/>
  <text class="st11" transform="translate(380.9 501.8)"><tspan x="0" y="0">Region-based</tspan></text>
  <line class="st6" x1="174.4" y1="267.9" x2="171.9" y2="254.8"/>
  <text class="st1" transform="translate(166.7 251.9)"><tspan x="0" y="0">①</tspan></text>
  <line class="st6" x1="164.4" y1="190.3" x2="161.8" y2="178.8"/>
  <text class="st1" transform="translate(157.4 177.1)"><tspan x="0" y="0">②</tspan></text>
  <line class="st6" x1="203.5" y1="108.6" x2="193.5" y2="112.7"/>
  <text class="st1" transform="translate(184.1 118)"><tspan x="0" y="0">③</tspan></text>
  <line class="st6" x1="190.7" y1="200.7" x2="195.7" y2="186.5"/>
  <line class="st6" x1="234.9" y1="239.8" x2="238.2" y2="224"/>
  <line class="st6" x1="222" y1="278.9" x2="225.6" y2="267.2"/>
  <text class="st1" transform="translate(193.2 184.6)"><tspan x="0" y="0">③</tspan></text>
  <text class="st1" transform="translate(223.1 266.2)"><tspan x="0" y="0">①</tspan></text>
  <text class="st1" transform="translate(236.1 221.1)"><tspan x="0" y="0">②</tspan></text>
  <line class="st6" x1="267.9" y1="542.8" x2="274.8" y2="528.7"/>
  <text class="st11" transform="translate(247.3 522.6)"><tspan x="0" y="0">Poisson distributed</tspan></text>
  <line class="st6" x1="285.1" y1="480.6" x2="282.5" y2="491.5"/>
  <text class="st11" transform="translate(254.4 505.8)"><tspan x="0" y="0">Linear regression</tspan></text>
  <line class="st6" x1="205" y1="472.5" x2="202.9" y2="478.7"/>
  <text class="st11" transform="translate(180.7 489.7)"><tspan x="0" y="0">Hybrid</tspan></text>
  <line class="st6" x1="223.1" y1="563.6" x2="233.3" y2="565.7"/>
  <text class="st11" transform="translate(235.2 571.4)"><tspan x="0" y="0">Long-read</tspan></text>
  <line class="st7" x1="159.8" y1="605.3" x2="159.8" y2="614"/>
  <line class="st7" x1="238.1" y1="591" x2="247.5" y2="588.6"/>
  <line class="st7" x1="207.7" y1="596.2" x2="207.7" y2="602.8"/>
  <text class="st1" transform="translate(155.4 603.1)"><tspan x="0" y="0">④</tspan></text>
  <text class="st1" transform="translate(203.9 611.8)"><tspan x="0" y="0">⑤</tspan></text>
  <text class="st1" transform="translate(250.2 589.8)"><tspan x="0" y="0">⑥</tspan></text>
  <text class="st11" transform="translate(144.9 567.7)"><tspan x="0" y="0">kallisto</tspan></text>
  <path class="st6" d="M159,551.8c-.3.3-1.4,1.4-1.6,3.2-.2,1.7.6,3,.8,3.4"/>
  <g>
    <polyline class="st6" points="417.2 66.2 417.2 69.2 414.2 69.2"/>
    <line class="st2" x1="414.2" y1="69.2" x2="413.7" y2="69.2"/>
    <line class="st4" x1="411.1" y1="69.2" x2="300.7" y2="69.2"/>
    <polyline class="st6" points="299.2 69.2 296.2 69.2 296.2 66.2"/>
    <line class="st8" x1="296.2" y1="66.2" x2="296.2" y2="65.8"/>
    <line class="st5" x1="296.2" y1="63.3" x2="296.2" y2="4.9"/>
    <polyline class="st6" points="296.2 3.5 296.2 .5 299.2 .5"/>
    <line class="st2" x1="299.2" y1=".5" x2="299.7" y2=".5"/>
    <line class="st4" x1="302.3" y1=".5" x2="412.7" y2=".5"/>
    <polyline class="st6" points="414.2 .5 417.2 .5 417.2 3.5"/>
    <line class="st8" x1="417.2" y1="3.5" x2="417.2" y2="3.9"/>
    <line class="st5" x1="417.2" y1="6.3" x2="417.2" y2="64.8"/>
  </g>
  <text class="st13" transform="translate(205.8 412.4)"><tspan x="0" y="0">Quantification</tspan></text>
  <path class="st6" d="M174.9,543.9c-.3-.3-2.7-2.4-2.6-5.6.1-1.7.9-2.9,1.3-3.5"/>
  <text class="st11" transform="translate(164.3 528.1)"><tspan x="0" y="0">Scallop2</tspan></text>
  <text class="st11" transform="translate(349.1 199.5)"><tspan x="0" y="0">Freddie</tspan></text>
  <path class="st6" d="M75.3,41.6c1.8-1.6,2.9-4.6,2.8-7.6-.1-1.8-.7-3.1-1-3.8"/>
  <text class="st11" transform="translate(70.9 27.8)"><tspan x="0" y="0">LyRic</tspan></text>
  <path class="st6" d="M65.3,42.1c0,0,1.8,1.9,1.1,4.2-.4,1.4-1.5,2.2-1.8,2.4"/>
  <text class="st11" transform="translate(49.3 57.5)"><tspan x="0" y="0">LRAA</tspan></text>
  <path class="st6" d="M250.6,603.1c1.2.6,2.9,1.5,5,2.7,8.4,4.8,10.8,7.9,15.6,11,7.7,4.9,15.5,6.1,20.3,6.7,9.2,1.3,11.3-.7,18.2,1.9,5,1.9,4.3,3.5,11.7,8.2,6,3.8,6.1,2.6,18.8,9.2,5.7,3,9.8,5.3,14.2,9.2,1.8,1.6,3.3,3.1,4.2,4.1"/>
  <text class="st11" transform="translate(248.5 682.7)"><tspan x="0" y="0">LRAA</tspan></text>
  <path class="st6" d="M250.1,602.5c.8.9,2,2.3,2.8,4.4.9,2.2,1.1,4.1,1.1,5.4.2,6.2-1.8,13.3-2.4,16.7-1.1,6,.4,10.6,3.1,18.8,1.4,4.2,6,18,18.1,27.8,11,8.9,16.1,4.9,29.9,16.3,5.1,4.2,8.4,6.9,11,12,2.7,5.3,3,9.7,7.3,18.6,1.3,2.6,2.5,4.7,3.2,6"/>
  <path class="st6" d="M306.4,695.1c-.5,0-3.1-.2-5.4,1.6-2.5,2-2.7,4.9-2.7,5.4"/>
  <line class="st6" x1="267.3" y1="612.8" x2="273.1" y2="605.3"/>
  <line class="st6" x1="252.9" y1="620.9" x2="248.4" y2="619.1"/>
  <text class="st11" transform="translate(266.9 601.3)"><tspan x="0" y="0">ONT</tspan></text>
  <text class="st11" transform="translate(221.8 620)"><tspan x="0" y="0">PacBio</tspan></text>
  <path class="st6" d="M201,281.6c4.7-1.3,11.6-2.8,20.1-2.7,3.5,0,9.6.4,20.3,3.4,19.7,5.5,34,14.1,39.5,17.5,15.4,9.7,14.5,12.9,24.7,18.1,14.2,7.4,24.3,5,40,7.1,25.8,3.3,44.7,14.1,50.6,17.8,5.8,3.7,10.3,7.3,13.2,9.8"/>
  <path class="st6" d="M373.8,332.1c-.3-.5-1-1.7-.9-3.3,0-.9.3-1.6.4-2"/>
  <text class="st11" transform="translate(354.2 324.1)"><tspan x="0" y="0">IsoQuant</tspan></text>
  <path class="st6" d="M358.7,183.2c.5,0,4.3-.1,6.7,2.9,1.6,2,1.7,4.2,1.7,4.9"/>
  <path class="st6" d="M365.2,169.6c.7,0,3.8,0,6.3,2.8,1.8,2,2.5,4.4,2.7,5.4"/>
  <text class="st11" transform="translate(339.9 165)"><tspan x="0" y="0">isONclust2</tspan></text>
  <path class="st3" d="M73,314.4c-.3.5-1.3,2.3-1,4.8.2,1.5.7,2.5,1,3"/>
  <text class="st11" transform="translate(57.7 331.8)"><tspan x="0" y="0">TransGram</tspan></text>
</svg>