<svg width="794" height="1123" xmlns="http://www.w3.org/2000/svg" xmlns:xlink="http://www.w3.org/1999/xlink" overflow="hidden"><defs><clipPath id="clip0"><rect x="0" y="0" width="794" height="1123"/></clipPath></defs><g clip-path="url(#clip0)"><rect x="0" y="0" width="794" height="1123.03" fill="#FFFFFF"/><path d="M684 527.513C684 543.806 658.256 557.014 626.5 557.014 594.744 557.014 569 543.806 569 527.513 569 511.221 594.744 498.013 626.5 498.013 658.256 498.013 684 511.221 684 527.513Z" stroke="#ED7D31" stroke-width="2.00084" stroke-miterlimit="8" fill="#ED7D31" fill-rule="evenodd"/><text font-family="DengXian,DengXian_MSFontService,sans-serif" font-weight="400" font-size="10.6714" transform="matrix(1 0 0 1.00003 585.519 146)">①</text><text font-family="Arial,Arial_MSFontService,sans-serif" font-weight="400" font-size="10.6714" transform="matrix(1 0 0 1.00003 599.191 146)">DNA caller</text><text font-family="DengXian,DengXian_MSFontService,sans-serif" font-weight="400" font-size="10.6714" transform="matrix(1 0 0 1.00003 585.519 159)">②</text><text font-family="Arial,Arial_MSFontService,sans-serif" font-weight="400" font-size="10.6714" transform="matrix(1 0 0 1.00003 599.191 159)">Assembly</text><text font-family="DengXian,DengXian_MSFontService,sans-serif" font-weight="400" font-size="10.6714" transform="matrix(1 0 0 1.00003 585.519 172)">③</text><text font-family="Arial,Arial_MSFontService,sans-serif" font-weight="400" font-size="10.6714" transform="matrix(1 0 0 1.00003 599.191 172)">Auxiliary</text><text font-family="DengXian,DengXian_MSFontService,sans-serif" font-weight="400" font-size="10.6714" transform="matrix(1 0 0 1.00003 585.519 184)">④</text><text font-family="Arial,Arial_MSFontService,sans-serif" font-weight="400" font-size="10.6714" transform="matrix(1 0 0 1.00003 599.191 184)">EM</text><text font-family="DengXian,DengXian_MSFontService,sans-serif" font-weight="400" font-size="10.6714" transform="matrix(1 0 0 1.00003 585.519 197)">⑤</text><text font-family="Arial,Arial_MSFontService,sans-serif" font-weight="400" font-size="10.6714" transform="matrix(1 0 0 1.00003 599.191 197)">Fractional</text><text font-family="DengXian,DengXian_MSFontService,sans-serif" font-weight="400" font-size="10.6714" transform="matrix(1 0 0 1.00003 585.519 210)">⑥</text><text font-family="Arial,Arial_MSFontService,sans-serif" font-weight="400" font-size="10.6714" transform="matrix(1 0 0 1.00003 599.191 210)">LASSO regression</text><text font-family="DengXian,DengXian_MSFontService,sans-serif" font-weight="400" font-size="10.6714" transform="matrix(1 0 0 1.00003 585.519 223)">⑦</text><text font-family="Arial,Arial_MSFontService,sans-serif" font-weight="400" font-size="10.6714" transform="matrix(1 0 0 1.00003 599.191 223)">Random</text><text font-family="DengXian,DengXian_MSFontService,sans-serif" font-weight="400" font-size="10.6714" transform="matrix(1 0 0 1.00003 585.519 236)">⑧</text><text font-family="Arial,Arial_MSFontService,sans-serif" font-weight="400" font-size="10.6714" transform="matrix(1 0 0 1.00003 599.191 236)">Single</text><text font-family="Arial,Arial_MSFontService,sans-serif" font-weight="400" font-size="10.6714" transform="matrix(1 0 0 1.00003 629.037 236)">-</text><text font-family="Arial,Arial_MSFontService,sans-serif" font-weight="400" font-size="10.6714" transform="matrix(1 0 0 1.00003 632.539 236)">cell</text><rect x="576.5" y="131.503" width="124" height="114.003" stroke="#000000" stroke-width="1.00042" stroke-miterlimit="8" stroke-dasharray="4.00168 3.00126" fill="none"/><path d="M581.614 286.618C594.3 297.045 587.972 325.709 567.481 350.642 546.99 375.575 520.095 387.335 507.409 376.908 494.723 366.482 501.05 337.817 521.542 312.884 542.033 287.952 568.928 276.192 581.614 286.618Z" stroke="#DBDBDB" stroke-width="2.00087" stroke-miterlimit="8" fill="#DBDBDB" fill-rule="evenodd"/><path d="M207.208 172.802C241.981 152.999 293.167 177.327 321.534 227.14 349.901 276.953 344.708 333.389 309.935 353.192 275.161 372.995 223.976 348.668 195.609 298.854 167.241 249.041 172.435 192.606 207.208 172.802Z" stroke="#DBDBDB" stroke-width="2.00088" stroke-miterlimit="8" fill="#DBDBDB" fill-rule="evenodd"/><path d="M474.398 149.938C508.202 162.351 522.074 209.264 505.383 254.721 488.692 300.178 447.757 326.966 413.953 314.552 380.149 302.139 366.277 255.226 382.968 209.769 399.659 164.312 440.594 137.525 474.398 149.938Z" stroke="#DBDBDB" stroke-width="2.00088" stroke-miterlimit="8" fill="#DBDBDB" fill-rule="evenodd"/><path d="M205.5 173.504C208.607 187.41 203.614 201.982 214.82 215.22 226.026 228.458 266.301 236.523 272.736 252.931 279.171 269.339 233.792 296.148 253.431 313.669 273.069 331.189 366.045 332.913 390.565 358.054 415.085 383.194 407.818 423.853 400.551 464.512" stroke="#172C51" stroke-width="1.33389" stroke-miterlimit="8" fill="none" fill-rule="evenodd"/><path d="M472.5 150.504C455.947 169.449 439.393 188.394 437.796 207.839 436.198 227.284 467.694 248.729 462.915 267.173 458.136 285.618 419.039 300.285 409.124 318.508 399.208 336.731 400.944 356.62 403.422 376.51" stroke="#172C51" stroke-width="1.33389" stroke-miterlimit="8" fill="none" fill-rule="evenodd"/><path d="M539.5 341.509C524.773 369.195 510.045 396.882 493.663 399.399 477.28 401.916 456.398 360.973 441.204 356.61 426.01 352.248 403.971 371.628 403.5 379.137" stroke="#172C51" stroke-width="1.33389" stroke-miterlimit="8" fill="none" fill-rule="evenodd"/><path d="M708.02 787.381C694.384 824.524 641.179 839.161 589.182 820.072 537.185 800.983 506.087 755.398 519.723 718.254 533.358 681.111 586.563 666.474 638.56 685.563 690.557 704.652 721.655 750.237 708.02 787.381Z" stroke="#FFFFFF" stroke-width="2.00085" stroke-miterlimit="8" fill="#FFE699" fill-rule="evenodd"/><path d="M704.627 788.408C684.788 788.723 664.948 789.037 650.699 781.945 636.451 774.852 632.932 751.077 619.137 745.853 605.342 740.628 583.219 757.671 567.929 750.598 552.638 743.526 543.033 714.168 527.393 703.419 511.753 692.669 486.9 701.492 474.089 686.099 461.279 670.707 464.079 632.211 450.531 611.063 436.984 589.915 401.564 581.568 392.805 559.211 384.046 536.855 393.829 496.739 397.979 476.925 398.497 474.448 399.142 472.184 399.88 470.097L401.1 467.238" stroke="#000000" stroke-width="1.3339" stroke-miterlimit="8" fill="none" fill-rule="evenodd"/><path d="M664.336 760.745C664.111 766.505 662.777 771.016 659.951 774.202 657.125 777.387 652.807 779.248 647.38 779.859" stroke="#172C51" stroke-width="1.33389" stroke-miterlimit="8" fill="none" fill-rule="evenodd"/><path d="M618.015 745.377C619.341 750.987 619.263 755.69 617.394 759.516 615.524 763.342 611.862 766.291 606.797 768.334" stroke="#172C51" stroke-width="1.3339" stroke-miterlimit="8" fill="none" fill-rule="evenodd"/><path d="M581.592 728.767C582.918 734.377 582.84 739.081 580.97 742.907 579.101 746.733 575.439 749.682 570.373 751.724" stroke="#172C51" stroke-width="1.3339" stroke-miterlimit="8" fill="none" fill-rule="evenodd"/><path d="M655.201 784.242C655.764 786.754 655.587 788.895 654.455 790.688 653.323 792.481 651.237 793.927 648.41 795" stroke="#172C51" stroke-width="1.3339" stroke-miterlimit="8" fill="none" fill-rule="evenodd"/><path d="M632.854 735.378C634.01 739.965 634.286 743.729 633.457 746.668 632.628 749.606 630.695 751.72 627.883 753.011" stroke="#172C51" stroke-width="1.3339" stroke-miterlimit="8" fill="none" fill-rule="evenodd"/><path d="M338 468.798C338 461.736 343.725 456.012 350.786 456.012L446.214 456.012C453.276 456.012 459 461.736 459 468.798L459 478.226C459 485.288 453.276 491.013 446.214 491.013L350.786 491.013C343.725 491.013 338 485.288 338 478.226Z" fill="#00B050" fill-rule="evenodd"/><text fill="#FFFFFF" font-family="Arial,Arial_MSFontService,sans-serif" font-weight="400" font-size="10.6714" transform="matrix(1 0 0 1.00003 376.199 477)">Detection</text><path d="M0 65.6767C-1.11022e-14 29.4044 39.0424-8.36152e-15 87.2036-1.6723e-14 135.365-3.34461e-14 174.407 29.4044 174.407 65.6767 174.407 101.949 135.365 131.353 87.2036 131.353 39.0424 131.353-5.55109e-14 101.949 0 65.6767Z" stroke="#FFFFFF" stroke-width="2.00085" stroke-miterlimit="8" fill="#FFE699" fill-rule="evenodd" transform="matrix(-0.475907 -0.879511 -0.879489 0.475919 662.532 942.733)"/><path d="M0 0C25.4065 0.0415923 50.813 0.0832897 69.5293 6.50269 88.2455 12.9221 95.2901 34.1393 112.297 38.5162 129.304 42.893 149.104 29.2206 171.572 32.7637 194.04 36.3069 224.47 57.9411 247.104 59.7751 269.739 61.6092 294.374 49.8543 307.38 43.7684" stroke="#172C51" stroke-width="1.3339" stroke-miterlimit="8" fill="none" fill-rule="evenodd" transform="matrix(-0.256748 -0.966501 -0.966477 0.256754 596.01 972.761)"/><path d="M0 18.9777C0.270805 13.2197 1.64077 8.71994 4.49215 5.55702 7.34353 2.3941 11.6763 0.567955 17.1082 0" stroke="#172C51" stroke-width="1.3339" stroke-miterlimit="8" fill="none" fill-rule="evenodd" transform="matrix(-0.256748 -0.966501 -0.966477 0.256754 579.866 929.641)"/><path d="M535.755 880.477C539.226 875.875 542.894 872.931 547.033 871.926 551.171 870.922 555.779 871.857 560.585 874.45" stroke="#172C51" stroke-width="1.3339" stroke-miterlimit="8" fill="none" fill-rule="evenodd"/><path d="M646.573 639.132C643.411 654.794 622.131 663.711 599.041 659.049 575.951 654.388 559.796 637.913 562.958 622.252 566.119 606.59 587.4 597.673 610.49 602.334 633.58 606.996 649.735 623.471 646.573 639.132Z" stroke="#FFFFFF" stroke-width="2.00084" stroke-miterlimit="8" fill="#FFE699" fill-rule="evenodd"/><path d="M595.996 627.995C581.322 628.946 539.56 629.377 517.184 638.688 494.807 647.998 482.775 663.45 474.492 686.859" stroke="#172C51" stroke-width="1.33389" stroke-miterlimit="8" fill="none" fill-rule="evenodd"/><path d="M408.604 1002.36C383.598 989.74 377.097 952.227 394.082 918.574 411.068 884.921 445.108 867.872 470.114 880.493 495.12 893.115 501.621 930.628 484.635 964.281 467.65 997.934 433.609 1014.98 408.604 1002.36Z" stroke="#FFFFFF" stroke-width="2.00088" stroke-miterlimit="8" fill="#FFE699" fill-rule="evenodd"/><path d="M474.411 688.26C470 704.471 456.831 743.406 451.191 768.36 445.551 793.314 439.067 821.272 440.573 837.983 442.078 854.694 457.657 858.396 460.224 868.628 462.79 878.861 459.85 888.643 455.974 899.377 452.098 910.112 440.065 920.038 436.967 933.036 433.87 946.033 441.957 966.161 437.389 977.363 432.821 988.565 413.475 996.987 409.559 1000.25" stroke="#172C51" stroke-width="1.33391" stroke-miterlimit="8" fill="none" fill-rule="evenodd"/><path d="M0 12.3418C0.255826 8.59719 1.55001 5.67086 4.24367 3.61391 6.93734 1.55696 11.0304 0.36936 16.1619 0" stroke="#172C51" stroke-width="1.33391" stroke-miterlimit="8" fill="none" fill-rule="evenodd" transform="matrix(-0.613091 0.79002 0.79 0.613106 426.698 939.268)"/><path d="M452.04 906.406C454.593 905.642 456.95 905.958 459.198 907.671 461.446 909.384 463.584 912.493 465.527 916.683" stroke="#172C51" stroke-width="1.33392" stroke-miterlimit="8" fill="none" fill-rule="evenodd"/><path d="M438.743 966.007C440.665 964.161 442.907 963.365 445.689 963.862 448.471 964.36 451.793 966.149 455.435 968.989" stroke="#172C51" stroke-width="1.33391" stroke-miterlimit="8" fill="none" fill-rule="evenodd"/><path d="M635 861.355C635 859.514 636.492 858.022 638.333 858.022L734.667 858.022C736.508 858.022 738 859.514 738 861.355L738 874.689C738 876.53 736.508 878.022 734.667 878.022L638.333 878.022C636.492 878.022 635 876.53 635 874.689Z" stroke="#FFFFFF" stroke-width="2.00084" stroke-miterlimit="8" fill="#FFE699" fill-rule="evenodd"/><text font-family="Arial,Arial_MSFontService,sans-serif" font-weight="400" font-size="10.6714" transform="matrix(1 0 0 1.00003 646.615 872)">(Sub)family</text><text font-family="Arial,Arial_MSFontService,sans-serif" font-weight="400" font-size="10.6714" transform="matrix(1 0 0 1.00003 700.638 872)">-</text><text font-family="Arial,Arial_MSFontService,sans-serif" font-weight="400" font-size="10.6714" transform="matrix(1 0 0 1.00003 704.139 872)">level</text><path d="M320.439 875.94C334.222 906.827 306.545 949.204 258.621 970.59 210.697 991.977 160.673 984.275 146.89 953.387 133.107 922.5 160.784 880.123 208.708 858.737 256.632 837.35 306.656 845.052 320.439 875.94Z" stroke="#FFFFFF" stroke-width="2.00085" stroke-miterlimit="8" fill="#BDD7EE" fill-rule="evenodd"/><path d="M155.5 961.524C180.171 958.827 204.843 956.13 218.187 947.606 231.531 939.083 223.618 918.421 235.565 910.383 247.513 902.345 269.279 917.176 289.873 899.378 310.467 881.581 337.485 829.742 359.13 803.598 380.775 777.453 426.576 745.533 432.747 725.849 442.252 707.164 451.207 645.015 457.5 625.516" stroke="#172C51" stroke-width="1.33389" stroke-miterlimit="8" fill="none" fill-rule="evenodd"/><path d="M234.17 910.152C228.411 910.406 223.805 909.452 220.396 906.901 216.986 904.349 214.773 900.201 213.712 894.843" stroke="#172C51" stroke-width="1.33393" stroke-miterlimit="8" fill="none" fill-rule="evenodd"/><path d="M264.064 922.987C258.305 923.242 253.7 922.288 250.29 919.736 246.881 917.185 244.667 913.036 243.607 907.678" stroke="#172C51" stroke-width="1.33393" stroke-miterlimit="8" fill="none" fill-rule="evenodd"/><path d="M295.123 892.191C289.364 892.446 284.758 891.491 281.349 888.94 277.939 886.388 275.726 882.24 274.665 876.882" stroke="#172C51" stroke-width="1.33393" stroke-miterlimit="8" fill="none" fill-rule="evenodd"/><path d="M243.917 949.446C237.911 949.834 233.155 949.451 229.709 948.064 226.264 946.677 224.129 944.286 223.244 941.124" stroke="#172C51" stroke-width="1.33393" stroke-miterlimit="8" fill="none" fill-rule="evenodd"/><path d="M203.203 953.027C198.126 953.247 194.064 952.38 191.054 950.079 188.044 947.777 186.086 944.041 185.142 939.219" stroke="#172C51" stroke-width="1.33393" stroke-miterlimit="8" fill="none" fill-rule="evenodd"/><path d="M0 46.9786C-8.88525e-15 21.033 31.2462-5.98101e-15 69.7904-1.1962e-14 108.335-2.3924e-14 139.581 21.033 139.581 46.9786 139.581 72.9242 108.335 93.9573 69.7904 93.9573 31.2462 93.9573-4.44263e-14 72.9242 0 46.9786Z" stroke="#FFFFFF" stroke-width="2.00086" stroke-miterlimit="8" fill="#BDD7EE" fill-rule="evenodd" transform="matrix(-0.69797 0.716128 0.71611 0.697987 320.528 672.541)"/><path d="M0 21.1699C22.7261 7.43544 40.1987 7.00408 68.1958 3.76037 96.1928 0.516654 136.755 5.70913 167.982 1.7074 199.209-2.29432 247.956 0.317933 266.02 14.0461" stroke="#172C51" stroke-width="1.33391" stroke-miterlimit="8" fill="none" fill-rule="evenodd" transform="matrix(-0.69797 0.716128 0.71611 0.697987 441.464 609.904)"/><path d="M0 8.40656C0.172792 5.85594 1.04692 3.86268 2.86629 2.4616 4.68567 1.06052 7.45026 0.251588 10.9162 0" stroke="#172C51" stroke-width="1.33391" stroke-miterlimit="8" fill="none" fill-rule="evenodd" transform="matrix(0.649552 0.760323 0.760303 -0.649568 286.364 753.919)"/><path d="M0 8.14335C0.18495 5.67259 1.12058 3.74174 3.06798 2.38453 5.01537 1.02731 7.97449 0.243711 11.6843 0" stroke="#172C51" stroke-width="1.33391" stroke-miterlimit="8" fill="none" fill-rule="evenodd" transform="matrix(0.649552 0.760323 0.760303 -0.649568 310.297 744.6)"/><path d="M254.224 717.7C261.839 732.248 244.835 756.175 216.244 771.144 187.652 786.112 158.301 786.452 150.685 771.904 143.069 757.356 160.073 733.428 188.665 718.46 217.256 703.492 246.608 703.152 254.224 717.7Z" stroke="#FFFFFF" stroke-width="2.00085" stroke-miterlimit="8" fill="#BDD7EE" fill-rule="evenodd"/><path d="M456.026 624.584C428.695 624.064 347.557 663.469 315.688 678.106 283.819 692.742 280.316 702.674 264.81 712.401 252.733 722.007 230.232 731.576 222.655 736.467" stroke="#172C51" stroke-width="1.33391" stroke-miterlimit="8" fill="none" fill-rule="evenodd"/><path d="M218.091 649.912C223.848 665.142 194.124 690.49 151.7 706.528 109.276 722.566 70.2175 723.221 64.4601 707.991 58.7028 692.761 88.427 667.414 130.851 651.375 173.275 635.337 212.333 634.682 218.091 649.912Z" fill="#BDD7EE" fill-rule="evenodd"/><path d="M372.652 584.008C354.691 597.597 353.626 620.206 331.389 632.188 309.151 644.17 264.897 660.15 239.229 655.898 213.56 651.646 188.608 661.176 163.656 670.706" stroke="#172C51" stroke-width="1.3339" stroke-miterlimit="8" fill="none" fill-rule="evenodd"/><path d="M258.107 502.958C243.313 529.955 202.239 535.904 166.365 516.244 130.491 496.585 113.402 458.763 128.196 431.766 142.99 404.769 184.064 398.82 219.938 418.479 255.812 438.138 272.901 475.961 258.107 502.958Z" stroke="#FFFFFF" stroke-width="2.00085" stroke-miterlimit="8" fill="#BDD7EE" fill-rule="evenodd"/><path d="M131.5 434.795C149.541 433.173 167.581 431.551 180.11 440.283 192.638 449.015 184.035 474.046 206.669 487.185 229.304 500.324 294.033 504.648 315.915 519.118 337.798 533.588 340.972 552.049 353.5 568.514" stroke="#172C51" stroke-width="1.33389" stroke-miterlimit="8" fill="none" fill-rule="evenodd"/><path d="M440.711 587.951C459.135 562.724 477.56 537.498 502.476 527.172 527.393 516.847 558.802 521.422 590.211 525.997" stroke="#172C51" stroke-width="1.33393" stroke-miterlimit="8" fill="none" fill-rule="evenodd"/><path d="M576 466.345C576 464.504 577.492 463.012 579.333 463.012L672.667 463.012C674.508 463.012 676 464.504 676 466.345L676 479.679C676 481.52 674.508 483.012 672.667 483.012L579.333 483.012C577.492 483.012 576 481.52 576 479.679Z" stroke="#FFFFFF" stroke-width="2.00084" stroke-miterlimit="8" fill="#ED7D31" fill-rule="evenodd"/><text font-family="Arial,Arial_MSFontService,sans-serif" font-weight="400" font-size="10.6714" transform="matrix(1 0 0 1.00003 589.525 476)">Transcript</text><text font-family="Arial,Arial_MSFontService,sans-serif" font-weight="400" font-size="10.6714" transform="matrix(1 0 0 1.00003 637.045 476)">-</text><text font-family="Arial,Arial_MSFontService,sans-serif" font-weight="400" font-size="10.6714" transform="matrix(1 0 0 1.00003 640.546 476)">level</text><path d="M76 580.348C76 577.955 77.9401 576.015 80.3334 576.015L150.667 576.015C153.06 576.015 155 577.955 155 580.348L155 597.682C155 600.075 153.06 602.015 150.667 602.015L80.3334 602.015C77.9401 602.015 76 600.075 76 597.682Z" stroke="#FFFFFF" stroke-width="2.00084" stroke-miterlimit="8" fill="#BDD7EE" fill-rule="evenodd"/><text font-family="Arial,Arial_MSFontService,sans-serif" font-weight="400" font-size="10.6714" transform="matrix(1 0 0 1.00003 88.7461 593)">Locus</text><text font-family="Arial,Arial_MSFontService,sans-serif" font-weight="400" font-size="10.6714" transform="matrix(1 0 0 1.00003 117.425 593)">-</text><text font-family="Arial,Arial_MSFontService,sans-serif" font-weight="400" font-size="10.6714" transform="matrix(1 0 0 1.00003 120.926 593)">level</text><path d="M338 573.801C338 566.739 343.725 561.014 350.786 561.014L446.214 561.014C453.276 561.014 459 566.739 459 573.801L459 583.229C459 590.29 453.276 596.015 446.214 596.015L350.786 596.015C343.725 596.015 338 590.29 338 583.229Z" fill="#00B050" fill-rule="evenodd"/><text fill="#FFFFFF" font-family="Arial,Arial_MSFontService,sans-serif" font-weight="400" font-size="10.6714" transform="matrix(1 0 0 1.00003 366.028 583)">Quantification</text><text font-family="Arial,Arial_MSFontService,sans-serif" font-weight="400" font-size="10.6714" transform="matrix(1 0 0 1.00003 340.865 417)">Long</text><text font-family="Arial,Arial_MSFontService,sans-serif" font-weight="400" font-size="10.6714" transform="matrix(1 0 0 1.00003 364.875 417)">-</text><text font-family="Arial,Arial_MSFontService,sans-serif" font-weight="400" font-size="10.6714" transform="matrix(1 0 0 1.00003 368.376 417)">read</text><path d="M392.5 420.511 407.102 428.116" stroke="#000000" stroke-width="1.33389" stroke-miterlimit="8" fill="none" fill-rule="evenodd"/><text font-family="Arial,Arial_MSFontService,sans-serif" font-weight="400" font-size="10.6714" transform="matrix(1 0 0 1.00003 259.222 543)">Long</text><text font-family="Arial,Arial_MSFontService,sans-serif" font-weight="400" font-size="10.6714" transform="matrix(1 0 0 1.00003 283.232 543)">-</text><text font-family="Arial,Arial_MSFontService,sans-serif" font-weight="400" font-size="10.6714" transform="matrix(1 0 0 1.00003 286.734 543)">read</text><path d="M0 0 14.6019 7.60466" stroke="#000000" stroke-width="1.33389" stroke-miterlimit="8" fill="none" fill-rule="evenodd" transform="matrix(1 0 0 -1.00003 311.5 534.118)"/><path d="M323.55 636.705 309.5 627.516" stroke="#000000" stroke-width="1.33389" stroke-miterlimit="8" fill="none" fill-rule="evenodd"/><text font-family="Arial,Arial_MSFontService,sans-serif" font-weight="400" font-size="10.6714" transform="matrix(1 0 0 1.00003 277.775 624)">Hybrid</text><text font-family="Arial,Arial_MSFontService,sans-serif" font-weight="400" font-size="10.6714" transform="matrix(1 0 0 1.00003 85.9066 688)">LocusMasterTE</text><path d="M0 12.3417C0.255824 8.59711 1.55 5.67081 4.24364 3.61388 6.93727 1.55694 11.0303 0.369357 16.1618 0" stroke="#172C51" stroke-width="1.33389" stroke-miterlimit="8" fill="none" fill-rule="evenodd" transform="matrix(-0.186075 0.98256 0.982535 0.18608 169.551 439.458)"/><path d="M0 12.3417C0.255824 8.59713 1.55 5.67082 4.24364 3.61388 6.93729 1.55695 11.0304 0.369357 16.1618 0" stroke="#172C51" stroke-width="1.3339" stroke-miterlimit="8" fill="none" fill-rule="evenodd" transform="matrix(-0.335347 0.942116 0.942092 0.335356 202.085 463.582)"/><text font-family="Arial,Arial_MSFontService,sans-serif" font-weight="400" font-size="10.6714" transform="matrix(1 0 0 1.00003 130.566 468)">CELLO</text><text font-family="Arial,Arial_MSFontService,sans-serif" font-weight="400" font-size="10.6714" transform="matrix(1 0 0 1.00003 165.747 468)">-</text><text font-family="Arial,Arial_MSFontService,sans-serif" font-weight="400" font-size="10.6714" transform="matrix(1 0 0 1.00003 169.249 468)">seq</text><text font-family="Arial,Arial_MSFontService,sans-serif" font-weight="400" font-size="10.6714" transform="matrix(1 0 0 1.00003 219.377 472)">MATES</text><text font-family="Arial,Arial_MSFontService,sans-serif" font-weight="400" font-size="10.6714" transform="matrix(1 0 0 1.00003 306.351 767)">SoloTE</text><text font-family="Arial,Arial_MSFontService,sans-serif" font-weight="400" font-size="10.6714" transform="matrix(1 0 0 1.00003 267.79 739)">ERVmap</text><text font-family="Arial,Arial_MSFontService,sans-serif" font-weight="400" font-size="10.6714" transform="matrix(1 0 0 1.00003 167.011 748)">Stellarscope</text><text font-family="Arial,Arial_MSFontService,sans-serif" font-weight="400" font-size="10.6714" transform="matrix(1 0 0 1.00003 238.504 871)">Telescope</text><text font-family="Arial,Arial_MSFontService,sans-serif" font-weight="400" font-size="10.6714" transform="matrix(1 0 0 1.00003 165.239 934)">SQuIRE</text><text font-family="Arial,Arial_MSFontService,sans-serif" font-weight="400" font-size="10.6714" transform="matrix(1 0 0 1.00003 241.847 959)">L1EM</text><text font-family="Arial,Arial_MSFontService,sans-serif" font-weight="400" font-size="10.6714" transform="matrix(1 0 0 1.00003 196.171 889)">TE</text><text font-family="Arial,Arial_MSFontService,sans-serif" font-weight="400" font-size="10.6714" transform="matrix(1 0 0 1.00003 209.844 889)">-</text><text font-family="Arial,Arial_MSFontService,sans-serif" font-weight="400" font-size="10.6714" transform="matrix(1 0 0 1.00003 213.345 889)">Seq</text><text font-family="Arial,Arial_MSFontService,sans-serif" font-weight="400" font-size="10.6714" transform="matrix(1 0 0 1.00003 231.211 932)">LocusMasterTE</text><text font-family="Arial,Arial_MSFontService,sans-serif" font-weight="400" font-size="10.6714" transform="matrix(1 0 0 1.00003 601.822 633)">TeXP</text><text font-family="Arial,Arial_MSFontService,sans-serif" font-weight="400" font-size="10.6714" transform="matrix(1 0 0 1.00003 602.797 729)">TEtranscripts</text><text font-family="Arial,Arial_MSFontService,sans-serif" font-weight="400" font-size="10.6714" transform="matrix(1 0 0 1.00003 637.796 755)">SalmonTE</text><text font-family="Arial,Arial_MSFontService,sans-serif" font-weight="400" font-size="10.6714" transform="matrix(1 0 0 1.00003 575.593 800)">REdiscoverTE</text><text font-family="Arial,Arial_MSFontService,sans-serif" font-weight="400" font-size="10.6714" transform="matrix(1 0 0 1.00003 557.873 720)">TEspeX</text><text font-family="Arial,Arial_MSFontService,sans-serif" font-weight="400" font-size="10.6714" transform="matrix(1 0 0 1.00003 551.401 772)">ExplorATE</text><text font-family="Arial,Arial_MSFontService,sans-serif" font-weight="400" font-size="10.6714" transform="matrix(1 0 0 1.00003 521.427 937)">TEtools</text><text font-family="Arial,Arial_MSFontService,sans-serif" font-weight="400" font-size="10.6714" transform="matrix(1 0 0 1.00003 563.016 886)">RepEnrich2</text><text font-family="Arial,Arial_MSFontService,sans-serif" font-weight="400" font-size="10.6714" transform="matrix(1 0 0 1.00003 445.472 982)">scTE</text><text font-family="Arial,Arial_MSFontService,sans-serif" font-weight="400" font-size="10.6714" transform="matrix(1 0 0 1.00003 451.436 927)">IRescue</text><text font-family="Arial,Arial_MSFontService,sans-serif" font-weight="400" font-size="10.6714" transform="matrix(1 0 0 1.00003 388.006 968)">MATES</text><text font-family="Arial,Arial_MSFontService,sans-serif" font-weight="400" font-size="10.6714" transform="matrix(1 0 0 1.00003 601.656 531)">LongTEQuant</text><path d="M0 0 11.642 17.1117" stroke="#000000" stroke-width="1.3339" stroke-miterlimit="8" fill="none" fill-rule="evenodd" transform="matrix(-0.499997 0.866042 0.86602 0.50001 398.009 737.745)"/><text font-family="DengXian,DengXian_MSFontService,sans-serif" font-weight="400" font-size="10.6714" transform="matrix(1 0 0 1.00003 388.354 732)">④</text><path d="M0 0 14.6019 7.60466" stroke="#000000" stroke-width="1.33389" stroke-miterlimit="8" fill="none" fill-rule="evenodd" transform="matrix(1 0 0 -1.00003 292.5 510.118)"/><text font-family="DengXian,DengXian_MSFontService,sans-serif" font-weight="400" font-size="10.6714" transform="matrix(1 0 0 1.00003 307.85 500)">⑧</text><path d="M0 0 9.08276 13.2472" stroke="#000000" stroke-width="1.33389" stroke-miterlimit="8" fill="none" fill-rule="evenodd" transform="matrix(1 0 0 -1.00003 345.5 664.764)"/><text font-family="DengXian,DengXian_MSFontService,sans-serif" font-weight="400" font-size="10.6714" transform="matrix(1 0 0 1.00003 351.139 648)">⑧</text><path d="M0 0 11.6419 17.1115" stroke="#000000" stroke-width="1.33389" stroke-miterlimit="8" fill="none" fill-rule="evenodd" transform="matrix(1 0 0 -1.00003 241.5 656.628)"/><text font-family="DengXian,DengXian_MSFontService,sans-serif" font-weight="400" font-size="10.6714" transform="matrix(1 0 0 1.00003 251.84 637)">④</text><path d="M0 0 14.0497 9.18916" stroke="#000000" stroke-width="1.33389" stroke-miterlimit="8" fill="none" fill-rule="evenodd" transform="matrix(1 0 0 -1.00003 451.5 610.705)"/><text font-family="Arial,Arial_MSFontService,sans-serif" font-weight="400" font-size="10.6714" transform="matrix(1 0 0 1.00003 463.046 594)">Short</text><text font-family="Arial,Arial_MSFontService,sans-serif" font-weight="400" font-size="10.6714" transform="matrix(1 0 0 1.00003 488.724 594)">-</text><text font-family="Arial,Arial_MSFontService,sans-serif" font-weight="400" font-size="10.6714" transform="matrix(1 0 0 1.00003 492.225 594)">read</text><path d="M369.591 689.752 360.5 683.517" stroke="#000000" stroke-width="1.33389" stroke-miterlimit="8" fill="none" fill-rule="evenodd"/><text font-family="DengXian,DengXian_MSFontService,sans-serif" font-weight="400" font-size="10.6714" transform="matrix(1 0 0 1.00003 349.316 681)">⑦</text><path d="M0 0 11.642 17.1117" stroke="#000000" stroke-width="1.3339" stroke-miterlimit="8" fill="none" fill-rule="evenodd" transform="matrix(-0.499997 0.866042 0.86602 0.50001 505.216 620.704)"/><text font-family="DengXian,DengXian_MSFontService,sans-serif" font-weight="400" font-size="10.6714" transform="matrix(1 0 0 1.00003 496.461 618)">⑥</text><path d="M0 0 11.6419 17.1115" stroke="#000000" stroke-width="1.33389" stroke-miterlimit="8" fill="none" fill-rule="evenodd" transform="matrix(1 0 0 -1.00003 504.5 697.629)"/><text font-family="DengXian,DengXian_MSFontService,sans-serif" font-weight="400" font-size="10.6714" transform="matrix(1 0 0 1.00003 514.87 678)">④</text><path d="M488.867 772.382 497.865 753.744" stroke="#000000" stroke-width="1.33392" stroke-miterlimit="8" fill="none" fill-rule="evenodd"/><text font-family="DengXian,DengXian_MSFontService,sans-serif" font-weight="400" font-size="10.6714" transform="matrix(1 0 0 1.00003 495.575 750)">⑤</text><path d="M0 0 14.6019 7.60466" stroke="#000000" stroke-width="1.33389" stroke-miterlimit="8" fill="none" fill-rule="evenodd" transform="matrix(1 0 0 -1.00003 449.5 855.126)"/><text font-family="DengXian,DengXian_MSFontService,sans-serif" font-weight="400" font-size="10.6714" transform="matrix(1 0 0 1.00003 464.41 845)">⑧</text><path d="M0 12.3417C0.255824 8.59713 1.55 5.67082 4.24364 3.61388 6.93729 1.55695 11.0304 0.369357 16.1618 0" stroke="#172C51" stroke-width="1.3339" stroke-miterlimit="8" fill="none" fill-rule="evenodd" transform="matrix(-0.335347 0.942116 0.942092 0.335356 220.854 199.995)"/><path d="M0 12.3418C0.255826 8.5972 1.55001 5.67086 4.24368 3.61391 6.93734 1.55696 11.0305 0.36936 16.1619 0" stroke="#172C51" stroke-width="1.33391" stroke-miterlimit="8" fill="none" fill-rule="evenodd" transform="matrix(-0.759891 0.650051 0.650034 0.75991 263.272 240.804)"/><path d="M0 12.3418C0.255826 8.59717 1.55001 5.67085 4.24367 3.6139 6.93732 1.55696 11.0304 0.369359 16.1619 0" stroke="#172C51" stroke-width="1.3339" stroke-miterlimit="8" fill="none" fill-rule="evenodd" transform="matrix(-0.557564 0.830145 0.830124 0.557579 257.307 291.339)"/><path d="M0 0 11.6419 17.1115" stroke="#000000" stroke-width="1.33389" stroke-miterlimit="8" fill="none" fill-rule="evenodd" transform="matrix(1 0 0 -1.00003 356.5 341.62)"/><text font-family="DengXian,DengXian_MSFontService,sans-serif" font-weight="400" font-size="10.6714" transform="matrix(1 0 0 1.00003 367.065 322)">①</text><path d="M0 0 9.08282 13.2473" stroke="#000000" stroke-width="1.3339" stroke-miterlimit="8" fill="none" fill-rule="evenodd" transform="matrix(0.86602 0.50001 0.499997 -0.866042 400.982 345.489)"/><text font-family="DengXian,DengXian_MSFontService,sans-serif" font-weight="400" font-size="10.6714" transform="matrix(1 0 0 1.00003 417.831 340)">②</text><path d="M0 0 11.642 17.1117" stroke="#000000" stroke-width="1.3339" stroke-miterlimit="8" fill="none" fill-rule="evenodd" transform="matrix(-0.499997 0.866042 0.86602 0.50001 484.626 380.155)"/><text font-family="DengXian,DengXian_MSFontService,sans-serif" font-weight="400" font-size="10.6714" transform="matrix(1 0 0 1.00003 475.872 378)">③</text><text font-family="Arial,Arial_MSFontService,sans-serif" font-weight="400" font-size="10.6714" transform="matrix(1 0 0 1.00003 237.86 208)">TLDR</text><text font-family="Arial,Arial_MSFontService,sans-serif" font-weight="400" font-size="10.6714" transform="matrix(1 0 0 1.00003 224.227 255)">xTea</text><text font-family="Arial,Arial_MSFontService,sans-serif" font-weight="400" font-size="10.6714" transform="matrix(1 0 0 1.00003 274.264 300)">sTELLeR</text><path d="M0 12.3417C0.255824 8.59713 1.55 5.67082 4.24364 3.61388 6.93729 1.55695 11.0304 0.369357 16.1618 0" stroke="#172C51" stroke-width="1.3339" stroke-miterlimit="8" fill="none" fill-rule="evenodd" transform="matrix(-0.335347 0.942116 0.942092 0.335356 443.685 199.995)"/><path d="M0 12.3417C0.255824 8.59712 1.55 5.67081 4.24364 3.61388 6.93728 1.55695 11.0304 0.369357 16.1618 0" stroke="#172C51" stroke-width="1.3339" stroke-miterlimit="8" fill="none" fill-rule="evenodd" transform="matrix(-0.956223 0.292637 0.29263 0.956248 459.134 254.768)"/><text font-family="Arial,Arial_MSFontService,sans-serif" font-weight="400" font-size="10.6714" transform="matrix(1 0 0 1.00003 459.808 209)">PALMER</text><text font-family="Arial,Arial_MSFontService,sans-serif" font-weight="400" font-size="10.6714" transform="matrix(1 0 0 1.00003 392.953 264)">TrEMOLO</text><text font-family="Arial,Arial_MSFontService,sans-serif" font-weight="400" font-size="10.6714" transform="matrix(1 0 0 1.00003 526.203 334)">TE</text><text font-family="Arial,Arial_MSFontService,sans-serif" font-weight="400" font-size="10.6714" transform="matrix(1 0 0 1.00003 539.875 334)">-</text><text font-family="Arial,Arial_MSFontService,sans-serif" font-weight="400" font-size="10.6714" transform="matrix(1 0 0 1.00003 543.377 334)">Seq</text></g></svg>